<svg xmlns="http://www.w3.org/2000/svg" viewBox="-6.81 -16.58 11.91 22.09" width="191" height="353">
<title>marksman</title>
<defs></defs>
<path d="M-1.4 0.4L-2.6 0" fill="none" stroke="#363b43" stroke-width="1.3"/>
<path d="M-1.8 -2.2L-3.4 -1.8L-3.6 1.6L-1.7 1.9Z" fill="#23272d"/>
<path d="M-1.8 -2.2L-3.4 -1.8L-3.6 1.6L-1.7 1.9Z" fill="none" stroke="#0a0c0f" stroke-width="0.1"/>
<path d="M-2 -2.2L-2.7 -3.2L-3.3 -1.9Z" fill="#575e68"/>
<path d="M-2 -2.2L-2.7 -3.2L-3.3 -1.9Z" fill="none" stroke="#0a0c0f" stroke-width="0.1"/>
<path d="M1.4 0.4L2.6 0" fill="none" stroke="#363b43" stroke-width="1.3"/>
<path d="M1.8 -2.2L3.4 -1.8L3.6 1.6L1.7 1.9Z" fill="#23272d"/>
<path d="M1.8 -2.2L3.4 -1.8L3.6 1.6L1.7 1.9Z" fill="none" stroke="#0a0c0f" stroke-width="0.1"/>
<path d="M2 -2.2L2.7 -3.2L3.3 -1.9Z" fill="#575e68"/>
<path d="M2 -2.2L2.7 -3.2L3.3 -1.9Z" fill="none" stroke="#0a0c0f" stroke-width="0.1"/>
<path d="M-1.4 -1.4L1.4 -1.4A0.6 0.6 0 0 1 2 -0.8L2 1A0.6 0.6 0 0 1 1.4 1.6L-1.4 1.6A0.6 0.6 0 0 1 -2 1L-2 -0.8A0.6 0.6 0 0 1 -1.4 -1.4Z" fill="#363b43"/>
<path d="M-1.4 -1.4L1.4 -1.4A0.6 0.6 0 0 1 2 -0.8L2 1A0.6 0.6 0 0 1 1.4 1.6L-1.4 1.6A0.6 0.6 0 0 1 -2 1L-2 -0.8A0.6 0.6 0 0 1 -1.4 -1.4Z" fill="none" stroke="#0a0c0f" stroke-width="0.1"/>
<path d="M3.8 0.6L3.9 0.6A0.9 0.9 0 0 1 4.8 1.5L4.8 4.3A0.9 0.9 0 0 1 3.9 5.2L3.8 5.2A0.9 0.9 0 0 1 2.9 4.3L2.9 1.5A0.9 0.9 0 0 1 3.8 0.6Z" fill="#e6e9ee"/>
<path d="M3.8 0.6L3.9 0.6A0.9 0.9 0 0 1 4.8 1.5L4.8 4.3A0.9 0.9 0 0 1 3.9 5.2L3.8 5.2A0.9 0.9 0 0 1 2.9 4.3L2.9 1.5A0.9 0.9 0 0 1 3.8 0.6Z" fill="none" stroke="#0a0c0f" stroke-width="0.1"/>
<path d="M3.1 2L4.6 2A0.2 0.2 0 0 1 4.8 2.2L4.8 3.4A0.2 0.2 0 0 1 4.6 3.6L3.1 3.6A0.2 0.2 0 0 1 2.9 3.4L2.9 2.2A0.2 0.2 0 0 1 3.1 2Z" fill="#3f6f93"/>
<path d="M-2.7 -2.2L-0.9 -3.8L0.9 -3.8L2.7 -2.2L2.9 2L0.8 3.4L-0.8 3.4L-2.9 2Z" fill="#e6e9ee"/>
<path d="M-2.7 -2.2L-0.9 -3.8L0.9 -3.8L2.7 -2.2L2.9 2L0.8 3.4L-0.8 3.4L-2.9 2Z" fill="none" stroke="#0a0c0f" stroke-width="0.1"/>
<path d="M-0.8 -3.2L0.8 -3.2L1.1 2.4L-1.1 2.4Z" fill="#9cc6e6"/>
<path d="M-0.8 -3.2L0.8 -3.2L1.1 2.4L-1.1 2.4Z" fill="none" stroke="#0a0c0f" stroke-width="0.06"/>
<path d="M-2.6 -1.6L-1.3 -1.9L-1.4 1.8L-2.6 1.6Z" fill="#3d8dff"/>
<path d="M-2.1 -0.3A2.2 2.2 0 0 1 -5.4 1.61A2.2 2.2 0 0 1 -5.4 -2.21A2.2 2.2 0 0 1 -2.1 -0.3" fill="#3d8dff"/>
<path d="M-2.1 -0.3A2.2 2.2 0 0 1 -5.4 1.61A2.2 2.2 0 0 1 -5.4 -2.21A2.2 2.2 0 0 1 -2.1 -0.3" fill="none" stroke="#0a0c0f" stroke-width="0.1"/>
<path d="M-4.3 -2.4L-3.1 -0.3L-5.5 -0.3Z" fill="#e6e9ee"/>
<path d="M-4.3 1.8L-3.3 0.3L-5.3 0.3Z" fill="#e6e9ee"/>
<path d="M-2.1 -0.3A2.2 2.2 0 0 1 -5.4 1.61A2.2 2.2 0 0 1 -5.4 -2.21A2.2 2.2 0 0 1 -2.1 -0.3" fill="none" stroke="#0a0c0f" stroke-width="0.12"/>
<path d="M-1.9 -2.9L-1.8 -2.9A0.2 0.2 0 0 1 -1.6 -2.7L-1.6 -1.1A0.2 0.2 0 0 1 -1.8 -0.9L-1.9 -0.9A0.2 0.2 0 0 1 -2.1 -1.1L-2.1 -2.7A0.2 0.2 0 0 1 -1.9 -2.9Z" fill="#c3c9d1"/>
<path d="M-1.9 -2.9L-1.8 -2.9A0.2 0.2 0 0 1 -1.6 -2.7L-1.6 -1.1A0.2 0.2 0 0 1 -1.8 -0.9L-1.9 -0.9A0.2 0.2 0 0 1 -2.1 -1.1L-2.1 -2.7A0.2 0.2 0 0 1 -1.9 -2.9Z" fill="none" stroke="#0a0c0f" stroke-width="0.06"/>
<path d="M-1.2 -2.9L-1.1 -2.9A0.2 0.2 0 0 1 -0.9 -2.7L-0.9 -1.1A0.2 0.2 0 0 1 -1.1 -0.9L-1.2 -0.9A0.2 0.2 0 0 1 -1.4 -1.1L-1.4 -2.7A0.2 0.2 0 0 1 -1.2 -2.9Z" fill="#c3c9d1"/>
<path d="M-1.2 -2.9L-1.1 -2.9A0.2 0.2 0 0 1 -0.9 -2.7L-0.9 -1.1A0.2 0.2 0 0 1 -1.1 -0.9L-1.2 -0.9A0.2 0.2 0 0 1 -1.4 -1.1L-1.4 -2.7A0.2 0.2 0 0 1 -1.2 -2.9Z" fill="none" stroke="#0a0c0f" stroke-width="0.06"/>
<path d="M1.4 -5.2L2.6 -5.2A0.5 0.5 0 0 1 3.1 -4.7L3.1 2.9A0.5 0.5 0 0 1 2.6 3.4L1.4 3.4A0.5 0.5 0 0 1 0.9 2.9L0.9 -4.7A0.5 0.5 0 0 1 1.4 -5.2Z" fill="#23272d"/>
<path d="M1.4 -5.2L2.6 -5.2A0.5 0.5 0 0 1 3.1 -4.7L3.1 2.9A0.5 0.5 0 0 1 2.6 3.4L1.4 3.4A0.5 0.5 0 0 1 0.9 2.9L0.9 -4.7A0.5 0.5 0 0 1 1.4 -5.2Z" fill="none" stroke="#0a0c0f" stroke-width="0.1"/>
<path d="M1.45 -4.6L2.55 -4.6A0.3 0.3 0 0 1 2.85 -4.3L2.85 -1.3A0.3 0.3 0 0 1 2.55 -1L1.45 -1A0.3 0.3 0 0 1 1.15 -1.3L1.15 -4.3A0.3 0.3 0 0 1 1.45 -4.6Z" fill="#3d8dff"/>
<path d="M1.45 -4.6L2.55 -4.6A0.3 0.3 0 0 1 2.85 -4.3L2.85 -1.3A0.3 0.3 0 0 1 2.55 -1L1.45 -1A0.3 0.3 0 0 1 1.15 -1.3L1.15 -4.3A0.3 0.3 0 0 1 1.45 -4.6Z" fill="none" stroke="#0a0c0f" stroke-width="0.07"/>
<path d="M1.25 -5.2L1.65 -5.2L1.65 -15.4L1.45 -16.3L1.25 -15.4Z" fill="#e6e9ee"/>
<path d="M1.25 -5.2L1.65 -5.2L1.65 -15.4L1.45 -16.3L1.25 -15.4Z" fill="none" stroke="#0a0c0f" stroke-width="0.07"/>
<path d="M2.35 -5.2L2.75 -5.2L2.75 -15.4L2.55 -16.3L2.35 -15.4Z" fill="#e6e9ee"/>
<path d="M2.35 -5.2L2.75 -5.2L2.75 -15.4L2.55 -16.3L2.35 -15.4Z" fill="none" stroke="#0a0c0f" stroke-width="0.07"/>
<path d="M1.2 -8.2L2.8 -8.2A0.2 0.2 0 0 1 3 -8L3 -7.7A0.2 0.2 0 0 1 2.8 -7.5L1.2 -7.5A0.2 0.2 0 0 1 1 -7.7L1 -8A0.2 0.2 0 0 1 1.2 -8.2Z" fill="#363b43"/>
</svg>
