<svg xmlns="http://www.w3.org/2000/svg" viewBox="-4.16 -10.5 8.32 16.7" width="133" height="267">
<title>sledgehammer</title>
<defs><clipPath id="c1"><path d="M-3.15 -5.9L-2.95 -5.9A0.6 0.6 0 0 1 -2.35 -5.3L-2.35 5.3A0.6 0.6 0 0 1 -2.95 5.9L-3.15 5.9A0.6 0.6 0 0 1 -3.75 5.3L-3.75 -5.3A0.6 0.6 0 0 1 -3.15 -5.9Z"/></clipPath><clipPath id="c2"><path d="M2.95 -5.9L3.15 -5.9A0.6 0.6 0 0 1 3.75 -5.3L3.75 5.3A0.6 0.6 0 0 1 3.15 5.9L2.95 5.9A0.6 0.6 0 0 1 2.35 5.3L2.35 -5.3A0.6 0.6 0 0 1 2.95 -5.9Z"/></clipPath></defs>
<path d="M-3.15 -5.9L-2.95 -5.9A0.6 0.6 0 0 1 -2.35 -5.3L-2.35 5.3A0.6 0.6 0 0 1 -2.95 5.9L-3.15 5.9A0.6 0.6 0 0 1 -3.75 5.3L-3.75 -5.3A0.6 0.6 0 0 1 -3.15 -5.9Z" fill="#121418"/>
<path d="M-3.15 -5.9L-2.95 -5.9A0.6 0.6 0 0 1 -2.35 -5.3L-2.35 5.3A0.6 0.6 0 0 1 -2.95 5.9L-3.15 5.9A0.6 0.6 0 0 1 -3.75 5.3L-3.75 -5.3A0.6 0.6 0 0 1 -3.15 -5.9Z" fill="none" stroke="#0a0c0f" stroke-width="0.1"/>
<g clip-path="url(#c1)">
<path d="M-2.3 -6.4L-3.8 -6.4" fill="none" stroke="#575e68" stroke-width="0.22"/>
<path d="M-2.3 -5.5L-3.8 -5.5" fill="none" stroke="#575e68" stroke-width="0.22"/>
<path d="M-2.3 -4.6L-3.8 -4.6" fill="none" stroke="#575e68" stroke-width="0.22"/>
<path d="M-2.3 -3.7L-3.8 -3.7" fill="none" stroke="#575e68" stroke-width="0.22"/>
<path d="M-2.3 -2.8L-3.8 -2.8" fill="none" stroke="#575e68" stroke-width="0.22"/>
<path d="M-2.3 -1.9L-3.8 -1.9" fill="none" stroke="#575e68" stroke-width="0.22"/>
<path d="M-2.3 -1L-3.8 -1" fill="none" stroke="#575e68" stroke-width="0.22"/>
<path d="M-2.3 -0.1L-3.8 -0.1" fill="none" stroke="#575e68" stroke-width="0.22"/>
<path d="M-2.3 0.8L-3.8 0.8" fill="none" stroke="#575e68" stroke-width="0.22"/>
<path d="M-2.3 1.7L-3.8 1.7" fill="none" stroke="#575e68" stroke-width="0.22"/>
<path d="M-2.3 2.6L-3.8 2.6" fill="none" stroke="#575e68" stroke-width="0.22"/>
<path d="M-2.3 3.5L-3.8 3.5" fill="none" stroke="#575e68" stroke-width="0.22"/>
<path d="M-2.3 4.4L-3.8 4.4" fill="none" stroke="#575e68" stroke-width="0.22"/>
<path d="M-2.3 5.3L-3.8 5.3" fill="none" stroke="#575e68" stroke-width="0.22"/>
</g>
<path d="M2.95 -5.9L3.15 -5.9A0.6 0.6 0 0 1 3.75 -5.3L3.75 5.3A0.6 0.6 0 0 1 3.15 5.9L2.95 5.9A0.6 0.6 0 0 1 2.35 5.3L2.35 -5.3A0.6 0.6 0 0 1 2.95 -5.9Z" fill="#121418"/>
<path d="M2.95 -5.9L3.15 -5.9A0.6 0.6 0 0 1 3.75 -5.3L3.75 5.3A0.6 0.6 0 0 1 3.15 5.9L2.95 5.9A0.6 0.6 0 0 1 2.35 5.3L2.35 -5.3A0.6 0.6 0 0 1 2.95 -5.9Z" fill="none" stroke="#0a0c0f" stroke-width="0.1"/>
<g clip-path="url(#c2)">
<path d="M2.3 -6.4L3.8 -6.4" fill="none" stroke="#575e68" stroke-width="0.22"/>
<path d="M2.3 -5.5L3.8 -5.5" fill="none" stroke="#575e68" stroke-width="0.22"/>
<path d="M2.3 -4.6L3.8 -4.6" fill="none" stroke="#575e68" stroke-width="0.22"/>
<path d="M2.3 -3.7L3.8 -3.7" fill="none" stroke="#575e68" stroke-width="0.22"/>
<path d="M2.3 -2.8L3.8 -2.8" fill="none" stroke="#575e68" stroke-width="0.22"/>
<path d="M2.3 -1.9L3.8 -1.9" fill="none" stroke="#575e68" stroke-width="0.22"/>
<path d="M2.3 -1L3.8 -1" fill="none" stroke="#575e68" stroke-width="0.22"/>
<path d="M2.3 -0.1L3.8 -0.1" fill="none" stroke="#575e68" stroke-width="0.22"/>
<path d="M2.3 0.8L3.8 0.8" fill="none" stroke="#575e68" stroke-width="0.22"/>
<path d="M2.3 1.7L3.8 1.7" fill="none" stroke="#575e68" stroke-width="0.22"/>
<path d="M2.3 2.6L3.8 2.6" fill="none" stroke="#575e68" stroke-width="0.22"/>
<path d="M2.3 3.5L3.8 3.5" fill="none" stroke="#575e68" stroke-width="0.22"/>
<path d="M2.3 4.4L3.8 4.4" fill="none" stroke="#575e68" stroke-width="0.22"/>
<path d="M2.3 5.3L3.8 5.3" fill="none" stroke="#575e68" stroke-width="0.22"/>
</g>
<path d="M0 -5.4L2.2 -5.4L2.5 -3.6L2.5 5L0 5.4L0 5.4L-2.5 5L-2.5 -3.6L-2.2 -5.4L0 -5.4Z" fill="#e6e9ee"/>
<path d="M0 -5.4L2.2 -5.4L2.5 -3.6L2.5 5L0 5.4L0 5.4L-2.5 5L-2.5 -3.6L-2.2 -5.4L0 -5.4Z" fill="none" stroke="#0a0c0f" stroke-width="0.1"/>
<path d="M-1.6 -4.8L-2.4 -3.4L-2.4 0.6L-1.6 0.2Z" fill="#3d8dff"/>
<path d="M1.6 -4.8L2.4 -3.4L2.4 0.6L1.6 0.2Z" fill="#3d8dff"/>
<path d="M-1.3 3L1.3 3A0.3 0.3 0 0 1 1.6 3.3L1.6 4.6A0.3 0.3 0 0 1 1.3 4.9L-1.3 4.9A0.3 0.3 0 0 1 -1.6 4.6L-1.6 3.3A0.3 0.3 0 0 1 -1.3 3Z" fill="#23272d"/>
<path d="M-1.3 3L1.3 3A0.3 0.3 0 0 1 1.6 3.3L1.6 4.6A0.3 0.3 0 0 1 1.3 4.9L-1.3 4.9A0.3 0.3 0 0 1 -1.6 4.6L-1.6 3.3A0.3 0.3 0 0 1 -1.3 3Z" fill="none" stroke="#0a0c0f" stroke-width="0.1"/>
<path d="M-1.2 3.3L-1.2 4.6" fill="none" stroke="#55e8f4" stroke-width="0.25"/>
<path d="M0 3.3L0 4.6" fill="none" stroke="#55e8f4" stroke-width="0.25"/>
<path d="M1.2 3.3L1.2 4.6" fill="none" stroke="#55e8f4" stroke-width="0.25"/>
<path d="M2.3 0A2.3 2.3 0 0 1 -1.15 1.99A2.3 2.3 0 0 1 -1.15 -1.99A2.3 2.3 0 0 1 2.3 0" fill="#363b43"/>
<path d="M2.3 0A2.3 2.3 0 0 1 -1.15 1.99A2.3 2.3 0 0 1 -1.15 -1.99A2.3 2.3 0 0 1 2.3 0" fill="none" stroke="#0a0c0f" stroke-width="0.1"/>
<path d="M-0.2 -9.4L0.2 -9.4A0.3 0.3 0 0 1 0.5 -9.1L0.5 -1.7A0.3 0.3 0 0 1 0.2 -1.4L-0.2 -1.4A0.3 0.3 0 0 1 -0.5 -1.7L-0.5 -9.1A0.3 0.3 0 0 1 -0.2 -9.4Z" fill="#3d8dff"/>
<path d="M-0.2 -9.4L0.2 -9.4A0.3 0.3 0 0 1 0.5 -9.1L0.5 -1.7A0.3 0.3 0 0 1 0.2 -1.4L-0.2 -1.4A0.3 0.3 0 0 1 -0.5 -1.7L-0.5 -9.1A0.3 0.3 0 0 1 -0.2 -9.4Z" fill="none" stroke="#0a0c0f" stroke-width="0.1"/>
<path d="M-0.5 -10.2L0.5 -10.2A0.3 0.3 0 0 1 0.8 -9.9L0.8 -9.2A0.3 0.3 0 0 1 0.5 -8.9L-0.5 -8.9A0.3 0.3 0 0 1 -0.8 -9.2L-0.8 -9.9A0.3 0.3 0 0 1 -0.5 -10.2Z" fill="#23272d"/>
<path d="M-0.5 -10.2L0.5 -10.2A0.3 0.3 0 0 1 0.8 -9.9L0.8 -9.2A0.3 0.3 0 0 1 0.5 -8.9L-0.5 -8.9A0.3 0.3 0 0 1 -0.8 -9.2L-0.8 -9.9A0.3 0.3 0 0 1 -0.5 -10.2Z" fill="none" stroke="#0a0c0f" stroke-width="0.1"/>
<path d="M-0.45 -5L0.45 -5A0.2 0.2 0 0 1 0.65 -4.8L0.65 -4.4A0.2 0.2 0 0 1 0.45 -4.2L-0.45 -4.2A0.2 0.2 0 0 1 -0.65 -4.4L-0.65 -4.8A0.2 0.2 0 0 1 -0.45 -5Z" fill="#363b43"/>
<path d="M0 -2.6L1.5 -2L2 0.4L1.4 2L0 2.3L0 2.3L-1.4 2L-2 0.4L-1.5 -2L0 -2.6Z" fill="#e6e9ee"/>
<path d="M0 -2.6L1.5 -2L2 0.4L1.4 2L0 2.3L0 2.3L-1.4 2L-2 0.4L-1.5 -2L0 -2.6Z" fill="none" stroke="#0a0c0f" stroke-width="0.1"/>
<path d="M1 0.1A1 1 0 0 1 -0.5 0.97A1 1 0 0 1 -0.5 -0.77A1 1 0 0 1 1 0.1" fill="#3d8dff"/>
<path d="M1 0.1A1 1 0 0 1 -0.5 0.97A1 1 0 0 1 -0.5 -0.77A1 1 0 0 1 1 0.1" fill="none" stroke="#0a0c0f" stroke-width="0.1"/>
<path d="M0.45 0.1A0.45 0.45 0 0 1 -0.22 0.49A0.45 0.45 0 0 1 -0.23 -0.29A0.45 0.45 0 0 1 0.45 0.1" fill="#23272d"/>
<path d="M1.2 1.2L2.4 2.6" fill="none" stroke="#e8c23a" stroke-width="0.12"/>
</svg>
